<svg width="400" height="400" viewBox="0 0 400 400" fill="none" xmlns="http://www.w3.org/2000/svg">
<circle r="200" transform="matrix(1 0 0 -1 200 200)" fill="white"/>
<g clip-path="url(#clip0_11_92)">
<rect width="270" height="270" transform="translate(65 65)" fill="white"/>
<path d="M223.23 237.435V253.655C223.23 257.804 225.981 261.45 229.969 262.589L268.508 273.6C280.58 277.049 289.588 287.14 291.653 299.524L295.762 324.179C296.706 329.844 292.339 334.999 286.597 334.999H113.403C107.661 334.999 103.294 329.843 104.238 324.179L108.348 299.524C110.412 287.139 119.42 277.049 131.493 273.6L170.031 262.589C174.021 261.449 176.77 257.803 176.77 253.655V237.435H223.23Z" fill="#00BEA5"/>
<path d="M200.001 297.832C219.635 297.832 236.013 283.911 239.817 265.403L229.97 262.59C225.98 261.45 223.231 257.804 223.231 253.656V237.435H176.771V253.656C176.771 257.804 174.02 261.45 170.032 262.59L160.185 265.403C163.987 283.912 180.367 297.832 200.001 297.832Z" fill="#B48764"/>
<path d="M223.23 242.081L210.454 237.435H176.771V253.656C176.771 257.804 174.02 261.45 170.032 262.59L160.185 265.403V265.404C199.35 284.081 223.23 242.081 223.23 242.081Z" fill="#966D50"/>
<path d="M265.044 84.1178C266.206 75.9872 274.917 80.2461 274.917 80.2461C269.11 50.0472 208.519 75.9872 208.519 75.9872L214.133 70.1796C185.918 54.2818 150.638 80.0525 150.638 80.0525C139.604 76.5678 111.728 87.409 111.728 113.929C111.728 141.031 125.666 181.683 125.666 181.683H278.982C278.982 181.683 283.628 130.577 283.628 111.994C283.628 93.4101 265.044 84.1178 265.044 84.1178Z" fill="#553732"/>
<path d="M274.917 80.246C255.752 56.2419 220.036 85.8601 220.036 85.8601C238.62 87.3119 236.587 109.38 236.587 109.38C232.522 102.701 226.424 103.863 226.424 103.863C225.553 125.06 211.325 145.677 203.678 149.355L204.066 181.683H278.982C278.982 181.683 283.628 130.577 283.628 111.994C283.628 93.4101 265.044 84.1178 265.044 84.1178C266.205 75.9872 274.917 80.246 274.917 80.246Z" fill="#64463C"/>
<path d="M269.69 172.391V130.578H130.311V172.391C125.18 172.391 121.019 176.551 121.019 181.683V190.975C121.019 196.107 125.18 200.267 130.311 200.267C130.567 200.267 130.808 200.211 131.058 200.191C133.838 215.797 144.448 229.152 159.515 235.179L182.745 244.47C193.822 248.901 206.178 248.901 217.255 244.47L240.485 235.179C255.554 229.152 266.163 215.797 268.942 200.191C269.193 200.212 269.434 200.267 269.69 200.267C274.821 200.267 278.981 196.107 278.981 190.975V181.683C278.982 176.551 274.822 172.391 269.69 172.391Z" fill="#C39772"/>
<path d="M251.106 130.577H130.311V172.391C125.18 172.391 121.019 176.551 121.019 181.683V190.975C121.019 196.106 125.18 200.266 130.311 200.266C130.567 200.266 130.808 200.211 131.058 200.191C133.838 215.797 144.448 229.151 159.515 235.178L182.745 244.47C187.989 246.568 193.52 247.637 199.066 247.749C183.299 240.752 171.618 229.445 164.038 220.206C157.229 211.905 153.54 201.512 153.54 190.776V156.678C153.54 151.86 157.221 147.779 162.027 147.432C169.663 146.882 176.724 144.514 181.416 144.514C195.354 144.514 213.938 139.869 241.814 149.16C259.986 155.218 265.044 144.514 265.044 144.514L251.106 130.577Z" fill="#B48764"/>
<path d="M134.957 172.391C134.957 172.391 134.957 149.161 148.895 135.224C148.895 135.224 157.92 138.63 176.77 135.224C188.821 133.046 191.096 135.224 191.096 135.224C191.096 135.224 190.128 144.806 176.77 149.161C176.77 149.161 190.708 158.453 204.646 144.516L203.678 149.355C203.678 149.355 218.39 152.259 231.554 136.772C231.554 136.772 236.588 136.384 241.814 139.869C250.933 145.948 260.398 142.45 260.398 142.45C260.398 142.45 269.69 153.807 269.69 172.391H278.982V121.285H125.665V172.391H134.956V172.391H134.957Z" fill="#553732"/>
<path d="M200 223.497C191.741 223.497 184.014 221.464 178.803 217.919C176.682 216.476 176.131 213.585 177.576 211.465C179.016 209.347 181.909 208.795 184.03 210.238C187.682 212.722 193.653 214.206 200 214.206C206.348 214.206 212.319 212.722 215.971 210.238C218.097 208.793 220.982 209.342 222.425 211.465C223.87 213.586 223.319 216.476 221.198 217.919C215.986 221.464 208.26 223.497 200 223.497Z" fill="#966D50"/>
<path d="M231.554 136.773C231.554 136.773 236.588 136.385 241.814 139.87C250.933 145.949 260.398 142.451 260.398 142.451C260.398 142.451 269.69 153.808 269.69 172.392H278.982V121.286H222.922C218.025 135.332 209.168 146.715 203.679 149.355C203.678 149.355 218.39 152.259 231.554 136.773Z" fill="#64463C"/>
<path d="M165.156 190.975C161.307 190.975 158.187 187.855 158.187 184.006V179.36C158.187 175.512 161.307 172.391 165.156 172.391C169.004 172.391 172.125 175.512 172.125 179.36V184.006C172.125 187.855 169.004 190.975 165.156 190.975Z" fill="#5A4137"/>
<path d="M234.845 190.975C230.997 190.975 227.876 187.855 227.876 184.006V179.36C227.876 175.512 230.997 172.391 234.845 172.391C238.694 172.391 241.814 175.512 241.814 179.36V184.006C241.814 187.855 238.694 190.975 234.845 190.975Z" fill="#5A4137"/>
<path d="M200 307.125C223.365 307.125 243.736 290.688 248.745 267.955L239.822 265.405L239.816 265.404C236.013 283.911 219.634 297.833 200 297.833C180.366 297.833 163.988 283.912 160.184 265.404L160.179 265.405L151.255 267.955C156.264 290.688 176.634 307.125 200 307.125Z" fill="#00AA9A"/>
<path d="M118.279 281.155C113.145 285.95 109.547 292.324 108.347 299.525L104.237 324.18C103.294 329.844 107.661 335 113.403 335H139.602V319.063C139.602 314.315 138.147 309.682 135.434 305.786L118.279 281.155Z" fill="#00AA9A"/>
<path d="M281.722 281.155C286.855 285.95 290.454 292.324 291.653 299.525L295.763 324.18C296.707 329.844 292.339 335 286.598 335H260.399V319.063C260.399 314.315 261.854 309.682 264.567 305.786L281.722 281.155Z" fill="#00AA9A"/>
</g>
<defs>
<clipPath id="clip0_11_92">
<rect width="270" height="270" fill="white" transform="translate(65 65)"/>
</clipPath>
</defs>
</svg>
