<svg width="261" height="133" viewBox="0 0 261 133" fill="none" xmlns="http://www.w3.org/2000/svg">
<path d="M18.688 11.568C24.4907 11.568 27.8613 15.7493 28.8 24.112C28.8 31.024 27.1787 35.376 23.936 37.168H23.168C20.6933 36.9973 19.456 36.1013 19.456 34.48L19.968 24.88V20.144L19.2 19.248H17.92C15.1893 19.248 11.9893 26.8427 8.32 42.032L7.552 51.632V54.448C7.552 63.3227 11.52 68.528 19.456 70.064H24.832C33.7067 70.064 44.4587 64.3467 57.088 52.912H57.6C59.904 52.912 61.2267 54.3627 61.568 57.264C59.6053 62.384 57.3013 64.944 54.656 64.944C42.4533 73.648 31.488 78 21.76 78C12.032 78 5.16267 72.6667 1.152 62L0 52.912V51.248C0 38.0213 3.712 25.8613 11.136 14.768C13.5253 12.6347 16.0427 11.568 18.688 11.568ZM71.808 7.34399C74.1973 7.34399 75.392 10.2453 75.392 16.048L76.928 38.064H77.44L83.84 35.632C91.008 35.632 95.36 42.9707 96.896 57.648C97.4933 61.8293 97.792 67.9733 97.792 76.08V86.448C97.792 89.6907 96.5973 91.312 94.208 91.312H93.696C91.392 90.9707 90.24 89.7333 90.24 87.6V75.568C90.24 56.2827 88.3627 45.616 84.608 43.568H83.84C81.28 43.568 79.4027 47.4933 78.208 55.344V62.512C78.208 75.312 77.1413 81.712 75.008 81.712L72.576 81.968C70.1867 81.968 68.992 78.4267 68.992 71.344C69.248 63.8347 69.76 57.6907 70.528 52.912L67.84 10.8C67.84 8.58133 69.1627 7.42933 71.808 7.34399ZM127.743 28.592C131.498 28.592 133.375 30.0853 133.375 33.072L132.223 35.504L131.455 58.928C131.455 69.5093 133.588 76.08 137.855 78.64L138.111 80.56C137.855 83.0347 136.703 84.272 134.655 84.272H133.887C127.487 79.92 124.287 73.264 124.287 64.304H123.391C119.978 73.8613 115.839 78.64 110.975 78.64C106.452 77.36 104.191 73.9893 104.191 68.528C104.191 56.496 109.012 44.5067 118.655 32.56C121.898 29.9147 124.927 28.592 127.743 28.592ZM112.255 63.408L111.743 66.992V69.424H113.023C119.423 53.4667 122.623 43.7387 122.623 40.24H122.111C117.162 45.7867 113.876 53.5093 112.255 63.408ZM156.286 0.303993C158.675 0.815997 159.87 2.01066 159.87 3.88799L159.102 9.52V11.184C159.102 14.9387 159.529 18.9067 160.382 23.088H160.638C170.537 20.1013 176.681 18.608 179.07 18.608C181.545 19.2907 182.782 20.528 182.782 22.32C182.782 25.2213 179.838 26.672 173.95 26.672L160.638 31.408C160.638 42.928 161.875 58.5867 164.35 78.384C163.838 80.688 162.601 81.84 160.638 81.84H160.382C157.395 81.84 155.902 78 155.902 70.32C154.793 64.6027 153.854 52.1867 153.086 33.072H150.782C142.761 32.56 138.75 30.6827 138.75 27.44C138.75 26.5013 139.646 25.3493 141.438 23.984H142.718L148.606 25.52H152.702L151.55 9.52C151.55 3.37599 153.129 0.303993 156.286 0.303993ZM201.786 0.303993C204.175 0.815997 205.37 2.01066 205.37 3.88799L204.602 9.52V11.184C204.602 14.9387 205.029 18.9067 205.882 23.088H206.138C216.037 20.1013 222.181 18.608 224.57 18.608C227.045 19.2907 228.282 20.528 228.282 22.32C228.282 25.2213 225.338 26.672 219.45 26.672L206.138 31.408C206.138 42.928 207.375 58.5867 209.85 78.384C209.338 80.688 208.101 81.84 206.138 81.84H205.882C202.895 81.84 201.402 78 201.402 70.32C200.293 64.6027 199.354 52.1867 198.586 33.072H196.282C188.261 32.56 184.25 30.6827 184.25 27.44C184.25 26.5013 185.146 25.3493 186.938 23.984H188.218L194.106 25.52H198.202L197.05 9.52C197.05 3.37599 198.629 0.303993 201.786 0.303993ZM236.278 39.6C239.265 39.6 241.313 46.1707 242.422 59.312C243.873 65.3707 244.939 68.4 245.622 68.4H246.39C248.523 63.024 249.59 57.6907 249.59 52.4L248.822 43.568C249.761 41.264 251.083 40.112 252.79 40.112C255.947 40.112 257.526 45.7013 257.526 56.88C259.403 68.4853 260.342 79.28 260.342 89.264V95.28C260.342 113.627 255.137 126 244.726 132.4L241.91 132.912C237.046 132.912 232.523 128.389 228.342 119.344L227.19 111.664V111.28C227.19 105.648 228.769 102.832 231.926 102.832L235.126 104.88L234.742 112.944C234.742 116.869 236.747 120.837 240.758 124.848H242.422C247.115 124.848 250.571 115.888 252.79 97.968L253.046 90.544C252.961 81.9253 252.619 76.4213 252.022 74.032C248.609 77.0187 245.921 78.512 243.958 78.512C239.606 78.512 235.723 66.864 232.31 43.568L231.926 43.312C231.926 41.3493 233.377 40.112 236.278 39.6Z" fill="#F1E0AC"/>
</svg>
