<svg width="400" height="400" viewBox="0 0 400 400" fill="none" xmlns="http://www.w3.org/2000/svg">
<circle cx="200" cy="200" r="200" fill="#98B4AA"/>
<path d="M127.2 133.6C129.6 133.6 131.667 135.667 133.4 139.8C128.067 154.467 125.4 168.2 125.4 181V187.8C125.4 202.733 129.2 210.2 136.8 210.2C146.533 210.2 153.2 193.133 156.8 159C156.8 143.133 158.2 135.2 161 135.2L164.2 134.8C167 134.8 168.667 137.067 169.2 141.6V209C169.2 251 162.133 275.6 148 282.8C145.333 284.267 141.333 285.533 136 286.6C124.267 286.6 110.933 279.733 96 266L95.4 263.6C95.4 260.533 97.6667 258.6 102.2 257.8L118 269C124.133 272.333 128.733 274 131.8 274H137.2C150.533 274 157.2 253.4 157.2 212.2V209.8H155.4C150.333 217.667 143.867 221.6 136 221.6C126.267 221.6 119.4 215.333 115.4 202.8C114.067 197.867 113.4 192.867 113.4 187.8V186C115.533 151.067 120.133 133.6 127.2 133.6ZM212.222 188.6C222.089 188.6 229.555 195.933 234.622 210.6L235.422 214.8C235.422 229.067 228.755 243.667 215.422 258.6C210.089 263.533 204.689 266 199.222 266C191.222 266 185.555 261.4 182.222 252.2C181.022 247.933 180.422 244.2 180.422 241V238.6C180.422 217.533 188.089 201.533 203.422 190.6C206.089 189.267 209.022 188.6 212.222 188.6ZM192.222 240.6C192.222 249.667 194.555 254.2 199.222 254.2C208.955 254.2 217.022 241.733 223.422 216.8V213C221.155 204.733 216.955 200.6 210.822 200.6C208.422 200.6 207.222 202.267 207.222 205.6C207.222 207.867 204.555 209.667 199.222 211C194.555 218.867 192.222 228.733 192.222 240.6ZM252.284 203.8L255.884 201.8C259.084 201.8 261.418 203.733 262.884 207.6C260.751 217.467 259.684 227.6 259.684 238C259.684 243.2 261.218 248.867 264.284 255H265.484C269.351 255 273.951 239.733 279.284 209.2C281.151 207.6 282.951 206.8 284.684 206.8C288.818 206.8 290.884 214.133 290.884 228.8C292.618 244.933 294.551 253 296.684 253L299.684 251.8C303.551 253.267 305.484 255.333 305.484 258C303.084 263.067 299.751 265.6 295.484 265.6C290.684 265.6 286.084 260.8 281.684 251.2C276.351 262.4 270.951 268 265.484 268C257.351 268 251.684 259.533 248.484 242.6L247.884 236.2V234.2C247.884 223.533 249.351 213.4 252.284 203.8Z" fill="#F1E0AC"/>
</svg>
