<svg width="400" height="400" viewBox="0 0 400 400" fill="none" xmlns="http://www.w3.org/2000/svg">
<circle r="200" transform="matrix(1 0 0 -1 200 200)" fill="#F1E0AC"/>
<path d="M189.4 98H190C193.333 99.7333 195 101.667 195 103.8L190 141.8C190 155.667 194.133 184.4 202.4 228L212.4 253C212.4 254.733 211 256.667 208.2 258.8H204.4C201.733 258 197.733 249.8 192.4 234.2C188.933 221.667 185.467 202.333 182 176.2H180.8C173.067 199.133 167.6 211 164.4 211.8L161.2 212.6C158.4 212.6 154.933 207.133 150.8 196.2H149.4C147.8 229.133 144.667 245.6 140 245.6H139.4C135.133 245.6 132.8 242.267 132.4 235.6C135.733 222.8 137.4 209.467 137.4 195.6L132 142.6V138.8C132 133.733 133.8 131.2 137.4 131.2C142.6 131.2 147.2 141.4 151.2 161.8C157.067 180.333 160.667 190.333 162 191.8C165.067 187 168.133 178.467 171.2 166.2C173.6 159.933 175.933 150.133 178.2 136.8L177.4 136.2L178.2 133V131.8C179.4 109.267 183.133 98 189.4 98ZM236.714 172.2C242.047 172.333 251.047 181.667 263.714 200.2L264.114 203.6C264.114 207.333 254.981 210.2 236.714 212.2L236.114 212.8V213.6C238.914 225.6 241.847 231.6 244.914 231.6H247.314C251.581 231.6 258.047 227 266.714 217.8H267.914C270.581 217.8 272.647 219.733 274.114 223.6C274.114 226.8 268.514 232.333 257.314 240.2C254.381 241.933 250.847 243.2 246.714 244C235.914 244 228.381 233.867 224.114 213.6C217.981 212.667 214.914 210.133 214.914 206C214.914 203.067 217.181 201.133 221.714 200.2V201L223.714 200.2V195.2C223.714 179.867 228.047 172.2 236.714 172.2ZM237.914 186.6H236.114L235.314 194V200.2H236.114C243.581 199.933 247.314 199.133 247.314 197.8C243.847 192.6 240.714 188.867 237.914 186.6Z" fill="#74959A"/>
</svg>
