<svg width="400" height="400" viewBox="0 0 400 400" fill="none" xmlns="http://www.w3.org/2000/svg">
<circle cx="200" cy="200" r="200" fill="white"/>
<path d="M199.999 152.65V326.781H279.858C279.858 326.781 295.031 248.108 294.658 200.733C294.286 153.358 199.999 152.65 199.999 152.65Z" fill="#543C2A"/>
<path d="M199.999 152.65V326.781H120.142C120.142 326.781 104.97 248.108 105.342 200.733C105.713 153.358 199.999 152.65 199.999 152.65Z" fill="#543C2A"/>
<path d="M219.477 268.385H180.521V312.016H219.477V268.385Z" fill="#FDCC9B"/>
<path d="M180.521 273.525C180.521 273.525 196.908 283.96 219.477 281.544V268.385H180.521V273.525Z" fill="#FCBC85"/>
<path d="M124.35 222.418C134.848 222.418 143.358 212.709 143.358 200.732C143.358 188.755 134.848 179.045 124.35 179.045C113.852 179.045 105.342 188.755 105.342 200.732C105.342 212.709 113.852 222.418 124.35 222.418Z" fill="#FCBC85"/>
<path d="M275.65 222.418C286.148 222.418 294.658 212.709 294.658 200.732C294.658 188.755 286.148 179.045 275.65 179.045C265.152 179.045 256.642 188.755 256.642 200.732C256.642 212.709 265.152 222.418 275.65 222.418Z" fill="#FCBC85"/>
<path d="M275.574 159.311C275.574 127.367 252.2 103.994 200 103.994C147.8 103.994 124.428 127.367 124.428 159.311C124.428 191.255 118.975 275.398 200 275.398C281.027 275.398 275.574 191.255 275.574 159.311Z" fill="#FDCC9B"/>
<path d="M163.19 204.499C167.708 204.499 171.371 200.488 171.371 195.539C171.371 190.591 167.708 186.579 163.19 186.579C158.672 186.579 155.009 190.591 155.009 195.539C155.009 200.488 158.672 204.499 163.19 204.499Z" fill="#3B2519"/>
<path d="M159.624 194.03C160.975 194.03 162.07 192.934 162.07 191.583C162.07 190.232 160.975 189.137 159.624 189.137C158.273 189.137 157.177 190.232 157.177 191.583C157.177 192.934 158.273 194.03 159.624 194.03Z" fill="white"/>
<path d="M150.103 176.221C153.972 177.701 160.182 171.188 174.402 176.855C176.994 177.888 178.54 168.018 163.299 168.018C150.103 168.018 147.765 175.327 150.103 176.221Z" fill="#684B37"/>
<path d="M237.82 204.499C242.338 204.499 246.001 200.488 246.001 195.539C246.001 190.591 242.338 186.579 237.82 186.579C233.302 186.579 229.639 190.591 229.639 195.539C229.639 200.488 233.302 204.499 237.82 204.499Z" fill="#3B2519"/>
<path d="M234.254 194.03C235.605 194.03 236.7 192.934 236.7 191.583C236.7 190.232 235.605 189.137 234.254 189.137C232.902 189.137 231.807 190.232 231.807 191.583C231.807 192.934 232.902 194.03 234.254 194.03Z" fill="white"/>
<path d="M249.897 176.221C246.028 177.701 239.817 171.188 225.598 176.855C223.006 177.888 221.46 168.018 236.7 168.018C249.897 168.018 252.233 175.327 249.897 176.221Z" fill="#684B37"/>
<path d="M199.999 227.055C191.916 227.055 187.047 221.016 187.047 223.938C187.047 226.859 189.385 232.411 199.999 232.411C210.615 232.411 212.952 226.86 212.952 223.938C212.953 221.016 208.083 227.055 199.999 227.055Z" fill="#FCBC85"/>
<path d="M199.999 253.918C197.204 253.918 195.519 251.83 195.519 252.839C195.519 253.85 196.328 255.77 199.999 255.77C203.671 255.77 204.479 253.85 204.479 252.839C204.479 251.83 202.796 253.918 199.999 253.918Z" fill="#FCBC85"/>
<path d="M199.999 246.474C187.186 246.474 179.468 241.256 179.468 242.579C179.468 243.901 183.172 249.104 199.999 249.104C216.825 249.104 220.531 243.9 220.531 242.579C220.531 241.257 212.811 246.474 199.999 246.474Z" fill="#F7945E"/>
<path d="M152.67 235.274C158.801 235.274 163.772 230.304 163.772 224.172C163.772 218.041 158.801 213.071 152.67 213.071C146.539 213.071 141.569 218.041 141.569 224.172C141.569 230.304 146.539 235.274 152.67 235.274Z" fill="#F9AA8D"/>
<path d="M248.693 235.274C254.825 235.274 259.795 230.304 259.795 224.172C259.795 218.041 254.825 213.071 248.693 213.071C242.562 213.071 237.592 218.041 237.592 224.172C237.592 230.304 242.562 235.274 248.693 235.274Z" fill="#F9AA8D"/>
<path d="M199.999 285.917V335H114.69C114.69 315.133 155.202 285.917 199.999 285.917Z" fill="#F5A860"/>
<path d="M199.999 285.917V335H285.309C285.309 315.133 244.799 285.917 199.999 285.917Z" fill="#F5A860"/>
<path d="M183.742 287.179C183.492 287.214 183.24 287.265 182.988 287.303C177.736 288.143 172.613 289.329 167.691 290.819L200 335V310.459L185.425 286.98C184.867 287.058 184.299 287.094 183.742 287.179Z" fill="#F18B45"/>
<path d="M216.257 287.179C216.509 287.214 216.76 287.265 217.012 287.303C222.264 288.143 227.388 289.329 232.31 290.819L199.999 335V310.459L214.574 286.981C215.132 287.058 215.702 287.094 216.257 287.179Z" fill="#F18B45"/>
<path d="M199.999 65C111.961 65 101.644 127.275 105.342 200.732C109.039 274.19 171.371 310.458 171.371 310.458C171.371 310.458 101.524 210.499 159.624 122.848C159.624 122.848 148.714 141.61 149.306 157.324C149.306 157.324 162.993 152.65 200 152.65C237.009 152.65 250.695 157.324 250.695 157.324C251.287 141.61 240.378 122.848 240.378 122.848C298.478 210.497 228.629 310.458 228.629 310.458C228.629 310.458 290.962 274.19 294.66 200.732C298.356 127.275 288.039 65 199.999 65Z" fill="#684B37"/>
<path d="M180.522 287.616L199.999 319.962L219.476 287.615C219.477 287.615 199.27 280.257 180.522 287.616Z" fill="#FDCC9B"/>
</svg>
